# Blender v2.82 (sub 7) OBJ File: ''
# www.blender.org
mtllib untitled.mtl
o Cube
v 1.308144 2.190847 -1.856029
v 1.300402 -1.655399 -1.347704
v 1.000000 1.000000 1.000000
v 0.954680 -0.814247 1.521691
v -1.000000 1.000000 -1.000000
v -2.087275 -1.348922 -1.335406
v -1.000000 1.000000 1.000000
v -2.015449 -1.509171 2.629537
vt 0.625000 0.500000
vt 0.875000 0.500000
vt 0.875000 0.750000
vt 0.625000 0.750000
vt 0.375000 0.750000
vt 0.625000 1.000000
vt 0.375000 1.000000
vt 0.375000 0.000000
vt 0.625000 0.000000
vt 0.625000 0.250000
vt 0.375000 0.250000
vt 0.125000 0.500000
vt 0.375000 0.500000
vt 0.125000 0.750000
vn -0.2192 0.9507 0.2192
vn 0.1428 0.4126 0.8996
vn -0.9154 0.4020 0.0218
vn 0.0786 -0.9917 0.1019
vn 0.9934 0.0115 0.1141
vn -0.1506 -0.0010 -0.9886
usemtl Material
s off
f 1/1/1 5/2/1 7/3/1 3/4/1
f 4/5/2 3/4/2 7/6/2 8/7/2
f 8/8/3 7/9/3 5/10/3 6/11/3
f 6/12/4 2/13/4 4/5/4 8/14/4
f 2/13/5 1/1/5 3/4/5 4/5/5
f 6/11/6 5/10/6 1/1/6 2/13/6
